<svg xmlns="http://www.w3.org/2000/svg" id="broccoli" width="55.06" height="52.84" viewBox="0 0 55.06 52.84"><metadata></metadata><defs><style>
      .cls-1 {
        fill: #f5777a;
        fill-rule: evenodd;
      }
    </style></defs><path id="Path_62" data-name="Path 62" class="cls-1" d="M1297.59,2448.61a1.016,1.016,0,0,0,.34.06,0.928,0.928,0,0,0,.87-0.59,0.941,0.941,0,0,0-.53-1.22,2.717,2.717,0,1,1,1.98-5.06,0.941,0.941,0,1,0,.69-1.75,4.6,4.6,0,1,0-3.35,8.56h0Z" transform="translate(-1275 -2434.63)"></path><path id="Path_63" data-name="Path 63" class="cls-1" d="M1324.91,2451.56a0.943,0.943,0,0,0-.48,1.24,2.725,2.725,0,0,1,.04,2.08,2.714,2.714,0,0,1-3.52,1.54,2.653,2.653,0,0,1-1.5-1.44,0.938,0.938,0,0,0-1.72.75,4.587,4.587,0,0,0,2.53,2.44,4.668,4.668,0,0,0,1.68.31,4.736,4.736,0,0,0,1.84-.38,4.637,4.637,0,0,0,2.44-2.54,4.572,4.572,0,0,0-.08-3.52A0.937,0.937,0,0,0,1324.91,2451.56Z" transform="translate(-1275 -2434.63)"></path><path id="Path_64" data-name="Path 64" class="cls-1" d="M1311.82,2448.96a0.949,0.949,0,0,0-.36,1.28,2.716,2.716,0,1,1-4.73,2.67,0.938,0.938,0,0,0-1.63.93,4.594,4.594,0,0,0,8-4.52A0.949,0.949,0,0,0,1311.82,2448.96Z" transform="translate(-1275 -2434.63)"></path><path id="Path_65" data-name="Path 65" class="cls-1" d="M1303.82,2450.65a4.6,4.6,0,0,0,6.14-2.13,0.939,0.939,0,0,0-1.69-.82,2.722,2.722,0,1,1-4.9-2.37,0.933,0.933,0,1,0-1.68-.81A4.584,4.584,0,0,0,1303.82,2450.65Z" transform="translate(-1275 -2434.63)"></path><path id="Path_66" data-name="Path 66" class="cls-1" d="M1296.85,2455.99a4.736,4.736,0,0,0,1.84.38,4.475,4.475,0,0,0,1.68-.32,4.537,4.537,0,0,0,2.53-2.43,0.938,0.938,0,1,0-1.72-.75,2.718,2.718,0,1,1-4.98-2.18,0.938,0.938,0,1,0-1.72-.75,4.607,4.607,0,0,0,2.37,6.05h0Z" transform="translate(-1275 -2434.63)"></path><path id="Path_67" data-name="Path 67" class="cls-1" d="M1308.67,2446.12a3.4,3.4,0,0,0,.45.03,4.534,4.534,0,0,0,2.91-1.06,4.587,4.587,0,0,0,.62-6.46,0.934,0.934,0,1,0-1.44,1.19,2.721,2.721,0,1,1-4.2,3.46,0.938,0.938,0,0,0-1.45,1.19,4.535,4.535,0,0,0,3.11,1.65h0Z" transform="translate(-1275 -2434.63)"></path><path id="Path_68" data-name="Path 68" class="cls-1" d="M1289.46,2454.59a0.924,0.924,0,0,0-.52-1.22,0.934,0.934,0,0,0-1.22.51,2.719,2.719,0,1,1-5.04-2.04,0.935,0.935,0,1,0-1.73-.71,4.6,4.6,0,0,0,2.53,5.99,4.5,4.5,0,0,0,1.72.33,4.6,4.6,0,0,0,4.26-2.86h0Z" transform="translate(-1275 -2434.63)"></path><path id="Path_69" data-name="Path 69" class="cls-1" d="M1328.68,2451.91a4.859,4.859,0,0,0-1.23-4.95,4.98,4.98,0,0,0-3.55-1.43,4.225,4.225,0,0,0-1.02-1.56,4.473,4.473,0,0,0-4.44-1.06c0-.08.02-0.16,0.02-0.25a6.684,6.684,0,0,0-6.73-6.62,6.567,6.567,0,0,0-2.06.32,5.7,5.7,0,0,0-8.5.34,6.4,6.4,0,0,0-2.83-.66,6.328,6.328,0,0,0-6.37,6.27v0.04a6.323,6.323,0,0,0-2.42,2.01,139.1,139.1,0,0,0-10.2,2.23,4.866,4.866,0,0,0-1.46,3.48,4.518,4.518,0,0,0-1.58,1,4.365,4.365,0,0,0,1.69,7.24,5.19,5.19,0,0,0,5.17,5.14,3.833,3.833,0,0,0,1.13,2.42,3.89,3.89,0,0,0,2.75,1.12,3.792,3.792,0,0,0,1.11-.18c3.86,0.11,9.1,8.59,9.79,18.48a2.353,2.353,0,0,0,2.34,2.17h4.69a2.339,2.339,0,0,0,2.33-2.08l0.08-.66c1.28-11.9,3.95-18,7.94-18.19a5.246,5.246,0,0,0,6.22-.84,5.51,5.51,0,0,0,.89-1.16,4.527,4.527,0,0,0,3.11-1.27,4.366,4.366,0,0,0,1.29-3.38,4.879,4.879,0,0,0,1.75-1.11,4.842,4.842,0,0,0,.09-6.86h0Zm-35.43-8.06a0.941,0.941,0,0,0,.63-1.01,4.553,4.553,0,0,1-.04-0.53,4.5,4.5,0,0,1,7.08-3.59,0.933,0.933,0,0,0,1.35-.32,3.815,3.815,0,0,1,6.36-.38,0.934,0.934,0,0,0,1.13.3,4.968,4.968,0,0,1,1.97-.41,4.811,4.811,0,0,1,4.86,4.75,4.5,4.5,0,0,1-.41,1.87h0l-0.07.17v0.01h0l-0.01.01a0.615,0.615,0,0,1-.03.11,1.948,1.948,0,0,0-.06.23c0,0.02.01,0.04,0.01,0.06a0.923,0.923,0,0,0,.03.29c0.01,0.03.04,0.05,0.05,0.08a0.724,0.724,0,0,0,.12.23,0.868,0.868,0,0,0,.27.23,1.5,1.5,0,0,1-.02,2.69,0.986,0.986,0,0,0-.47.59,0.94,0.94,0,0,0,.12.75,2.92,2.92,0,0,1-1.39,4.31,0.937,0.937,0,0,0-.51,1.2,2.9,2.9,0,0,1,.19,1.04,3.014,3.014,0,0,1-3.04,2.98,3.151,3.151,0,0,1-.52-0.05c-0.03-.01-0.07-0.01-0.1-0.02a3.116,3.116,0,0,1-.5-0.14h0a3.124,3.124,0,0,1-1.51-1.27,0.96,0.96,0,0,0-.79-0.46,0.911,0.911,0,0,0-.8.43,4.849,4.849,0,0,1-2.05,1.76c-0.12.06-.24,0.11-0.36,0.16-0.06.02-.13,0.04-0.19,0.06-0.12.04-.23,0.07-0.35,0.1-0.08.02-.17,0.03-0.25,0.05-0.11.02-.21,0.04-0.32,0.05a3.313,3.313,0,0,1-.55.04c-0.14,0-.28-0.01-0.42-0.02a0.66,0.66,0,0,1-.14-0.01c-0.15-.02-0.3-0.04-0.46-0.07-0.02-.01-0.06-0.01-0.08-0.02a3.943,3.943,0,0,1-.49-0.14c-0.02,0-.03-0.01-0.05-0.01a5.486,5.486,0,0,1-.51-0.21,4.9,4.9,0,0,1-1.85-1.53,0.945,0.945,0,0,0-.62-0.38c-0.04,0-.09-0.01-0.14-0.01a0.893,0.893,0,0,0-.56.2,4.317,4.317,0,0,1-.78.44c-0.01.01-.01,0-0.02,0.01a4.25,4.25,0,0,1-.74.24,0.037,0.037,0,0,0-.03.01,3.823,3.823,0,0,1-.75.08,3.731,3.731,0,0,1-3.77-3.69,3.617,3.617,0,0,1,.72-2.16,0.864,0.864,0,0,0,.17-0.71,0.9,0.9,0,0,0-.39-0.62,4.389,4.389,0,0,1-1.95-3.62,4.457,4.457,0,0,1,.05-0.63c0.01-.05.02-0.11,0.03-0.16a4.051,4.051,0,0,1,.12-0.47c0.02-.05.03-0.1,0.05-0.16a4.885,4.885,0,0,1,.2-0.48,0.355,0.355,0,0,0,.04-0.09,4.5,4.5,0,0,1,2.54-2.16h0Zm13.38,17.22a6.994,6.994,0,0,0,1.31-1.06,5.188,5.188,0,0,0,1.36.9,0.73,0.73,0,0,0,.09.1,3.8,3.8,0,0,0,.49.41,28.31,28.31,0,0,0-3.05,4.48,34.121,34.121,0,0,0-.2-4.83h0Zm-6.09,9.86a28.193,28.193,0,0,0-5.08-7.87,3.135,3.135,0,0,0,.81-0.55,2.782,2.782,0,0,0,.83-1.9,5.972,5.972,0,0,0,.64-0.43c0.13-.06.27-0.12,0.4-0.19a6.721,6.721,0,0,0,1.58,1.23,39.565,39.565,0,0,1,.82,9.71h0Zm-14.93-6.39a1.953,1.953,0,0,1-.52-1.89,0.929,0.929,0,0,0-.9-1.18,1.231,1.231,0,0,0-.2.02,3.4,3.4,0,0,1-3.14-.88,3.26,3.26,0,0,1-.93-2.87,0.933,0.933,0,0,0-.81-1.09,2.576,2.576,0,0,1-1.49-.71,2.487,2.487,0,0,1,1.42-4.23,0.944,0.944,0,0,0,.62-0.39,0.931,0.931,0,0,0,.15-0.71,3.027,3.027,0,0,1,.85-2.69,3.167,3.167,0,0,1,3.57-.58,0.927,0.927,0,0,0,1.13-.26c0.08-.09.16-0.19,0.25-0.28a3.126,3.126,0,0,1,3.06-.76c-0.01.02-.01,0.05-0.02,0.08-0.07.22-.12,0.45-0.17,0.68-0.01.08-.04,0.16-0.05,0.24a6.127,6.127,0,0,0,1.98,5.57,5.4,5.4,0,0,0-.61,2.5,5.115,5.115,0,0,0,.03.56c0.01,0.07.02,0.13,0.03,0.19,0.01,0.12.03,0.24,0.05,0.36l0.06,0.21a2.806,2.806,0,0,0,.08.31,2.094,2.094,0,0,0,.08.23c0.03,0.09.07,0.19,0.1,0.28a2.256,2.256,0,0,1,.11.22c0.04,0.09.08,0.17,0.13,0.26a2.392,2.392,0,0,0,.13.21c0.05,0.08.09,0.16,0.14,0.24l0.15,0.21c0.06,0.07.11,0.15,0.17,0.22s0.12,0.13.17,0.19a1.8,1.8,0,0,0,.19.2c0.06,0.06.13,0.12,0.19,0.18s0.13,0.12.2,0.18,0.14,0.11.21,0.16,0.14,0.11.22,0.16,0.14,0.09.22,0.14,0.15,0.1.23,0.14l0.24,0.12c0.08,0.04.16,0.08,0.25,0.12l0.24,0.09c0.09,0.04.18,0.07,0.26,0.1s0.18,0.05.26,0.07a2.681,2.681,0,0,0,.27.07,2.558,2.558,0,0,0,.27.05c0.1,0.02.19,0.03,0.28,0.04s0.19,0.02.28,0.03a1.1,1.1,0,0,1,.18.02,0.934,0.934,0,0,1-.26.5,0.962,0.962,0,0,1-.95.22,0.937,0.937,0,0,0-1.18.69,1.75,1.75,0,0,1-.2.51,1.867,1.867,0,0,1-.33.45,2.046,2.046,0,0,1-2.21.43,0.933,0.933,0,0,0-1.19.48,1.849,1.849,0,0,1-.41.58,1.913,1.913,0,0,1-.72.45,0.01,0.01,0,0,0-.01.01,2.086,2.086,0,0,1-2.15-.45h0Zm19.91,19.98-0.07.64a0.476,0.476,0,0,1-.47.43h-4.69a0.469,0.469,0,0,1-.47-0.43c-0.62-8.98-4.96-17.54-9.55-19.71a43.667,43.667,0,0,1,.41.04,2.432,2.432,0,0,0,.27,0h0.19c0.09-.01.18-0.03,0.26-0.04s0.13-.01.19-0.02a2.5,2.5,0,0,0,.26-0.07,1.625,1.625,0,0,0,.19-0.04c0.08-.03.16-0.07,0.25-0.1a0.865,0.865,0,0,0,.17-0.07c0.09-.04.18-0.08,0.27-0.13,0.05-.03.09-0.05,0.14-0.08a2.922,2.922,0,0,0,.32-0.21,0.209,0.209,0,0,1,.06-0.04c0.12-.1.24-0.2,0.36-0.31a3.584,3.584,0,0,0,.26-0.29,27.548,27.548,0,0,1,6.45,11.99,0.935,0.935,0,0,0,1.84-.14c0.04-.36.78-8.12-0.35-13.96l0.21,0.03,0.45,0.06c0.1,0,.2.01,0.31,0.01,0.09,0,.17.02,0.26,0.02,0.06,0,.11-0.01.16-0.01,0.1-.01.21-0.01,0.32-0.02,0.14-.01.28-0.02,0.42-0.04,0.1-.01.19-0.03,0.29-0.04,0.15-.03.3-0.06,0.45-0.1l0.15-.03a27.787,27.787,0,0,1-.76,9.99,0.942,0.942,0,0,0,1.79.58,39.359,39.359,0,0,1,5.03-9.3,0.138,0.138,0,0,0,.03.04,2.539,2.539,0,0,0,.36.45l0.01,0.01a3.189,3.189,0,0,0,.4.33,0.02,0.02,0,0,1,.02.01,2.386,2.386,0,0,0,.22.12c0.08,0.04.16,0.09,0.24,0.13a0.737,0.737,0,0,1,.14.04,2.259,2.259,0,0,0,.37.11,2.328,2.328,0,0,0,.53.06,3.978,3.978,0,0,0,.34.56c-6.17,2.26-7.55,15.05-8.03,19.53h0Zm21.76-27.09a3.072,3.072,0,0,1-1.66.84,0.968,0.968,0,0,0-.64.43,0.929,0.929,0,0,0-.1.76,2.47,2.47,0,0,1-.65,2.46,2.59,2.59,0,0,1-2.22.7,0.944,0.944,0,0,0-1.02.59,3.214,3.214,0,0,1-.76,1.14,3.419,3.419,0,0,1-4.21.44h0a3.208,3.208,0,0,1-.56-0.44,3.249,3.249,0,0,1-.79-1.24,0.875,0.875,0,0,0-.17-0.28,0.234,0.234,0,0,0-.07-0.07,1.151,1.151,0,0,0-.17-0.14,1.037,1.037,0,0,1-.1-0.04,0.762,0.762,0,0,0-.2-0.06,0.425,0.425,0,0,0-.11-0.02c-0.02,0-.04-0.01-0.06-0.01a1.068,1.068,0,0,0-.25.03h0c-0.04.01-.08,0.01-0.12,0.02a0.917,0.917,0,0,1-.7-0.17,0.834,0.834,0,0,1-.12-0.08,1.245,1.245,0,0,1-.16-0.22c-0.01-.02-0.01-0.04-0.02-0.06a0.6,0.6,0,0,1-.06-0.19,0.792,0.792,0,0,1,.02-0.43l0.03-.12a4.811,4.811,0,0,0,.84-0.26c0.07-.03.14-0.08,0.22-0.11a6.19,6.19,0,0,0,.57-0.3c0.09-.06.17-0.13,0.26-0.2a3.647,3.647,0,0,0,.43-0.35,2.949,2.949,0,0,0,.25-0.25,4.346,4.346,0,0,0,.34-0.41c0.07-.1.14-0.19,0.2-0.29a3.717,3.717,0,0,0,.27-0.48,2.917,2.917,0,0,0,.14-0.31,5.44,5.44,0,0,0,.19-0.57c0.02-.1.05-0.19,0.07-0.29a4.63,4.63,0,0,0,.1-0.92,4.579,4.579,0,0,0-.09-0.9,4.81,4.81,0,0,0,1.91-5.88,3.384,3.384,0,0,0,1-1.77,3.232,3.232,0,0,0,.07-0.69,2.989,2.989,0,0,0-.07-0.67,1.519,1.519,0,0,0-.06-0.2,3.056,3.056,0,0,0-.13-0.43c-0.04-.08-0.08-0.15-0.12-0.22a3.236,3.236,0,0,0-.2-0.36c-0.05-.07-0.11-0.14-0.16-0.21s-0.09-.13-0.15-0.19a2.616,2.616,0,0,1,3.28.29,2.457,2.457,0,0,1,.71,1.38,0.97,0.97,0,0,0,.38.62,0.95,0.95,0,0,0,.71.15,3.189,3.189,0,0,1,2.77.84,3.007,3.007,0,0,1,.59,3.46,0.94,0.94,0,0,0,.26,1.16,3.467,3.467,0,0,1,.29.25,2.982,2.982,0,0,1,0,4.27h0Z" transform="translate(-1275 -2434.63)"></path></svg>