<svg xmlns="http://www.w3.org/2000/svg" xmlns:xlink="http://www.w3.org/1999/xlink" id="Capa_1" x="0px" y="0px" viewBox="0 0 511 511" style="enable-background:new 0 0 511 511;" xml:space="preserve">
<g>
	<path d="M255.5,100.001c-4.142,0-7.5,3.358-7.5,7.5s3.358,7.5,7.5,7.5c10.072,0,16.5,5.034,16.5,8.5c0,4.142,3.358,7.5,7.5,7.5   s7.5-3.358,7.5-7.5C287,110.323,273.164,100.001,255.5,100.001z"></path>
	<path d="M391.498,195.001H407.5c4.142,0,7.5-3.358,7.5-7.5s-3.358-7.5-7.5-7.5h-16.003c-4.142,0-7.5,3.358-7.5,7.5   S387.355,195.001,391.498,195.001z"></path>
	<path d="M439.503,195.001H455.5c4.687,0,8.5,3.813,8.5,8.5v32c0,4.142,3.358,7.5,7.5,7.5s7.5-3.358,7.5-7.5v-32   c0-12.958-10.542-23.5-23.5-23.5h-15.997c-4.142,0-7.5,3.358-7.5,7.5S435.361,195.001,439.503,195.001z"></path>
	<path d="M455.5,148.001H312.499c4.245-7.55,6.501-15.908,6.501-24.5c0-28.283-24.337-51.676-55.665-55.063   c1.324-5.944,5.019-14.45,11.923-18.447c3.585-2.076,4.808-6.664,2.733-10.249c-2.076-3.585-6.664-4.809-10.249-2.733   c-12.22,7.075-18.159,21.068-19.587,31.374C216.59,71.577,192,95.07,192,123.501c0,8.592,2.256,16.95,6.501,24.5H55.5   c-30.603,0-55.5,24.897-55.5,55.5l0.001,42.835c0,0.19,0.029,0.374,0.043,0.562c0.015,0.196,0.016,0.396,0.045,0.589   c0.03,0.195,0.088,0.38,0.134,0.57c0.042,0.178,0.07,0.361,0.125,0.534c0.052,0.165,0.129,0.319,0.192,0.479   c0.074,0.189,0.137,0.383,0.226,0.564c0.054,0.109,0.125,0.208,0.184,0.314c0.121,0.22,0.238,0.443,0.381,0.649   c0.096,0.139,0.213,0.263,0.319,0.395c0.127,0.159,0.244,0.326,0.383,0.474c0.165,0.175,0.351,0.329,0.532,0.488   c0.1,0.088,0.189,0.188,0.295,0.27c0.288,0.227,0.595,0.432,0.918,0.617c0.008,0.005,0.015,0.011,0.023,0.016   c0.333,0.188,0.682,0.353,1.047,0.491c0.218,0.083,0.442,0.133,0.664,0.194c0.822,0.227,1.66,0.317,2.487,0.261v197.697   c0,12.958,10.542,23.5,23.5,23.5h448c12.958,0,23.5-10.542,23.5-23.5v-160c0-0.077-0.009-0.151-0.011-0.227   c2.192-1.63,4.251-3.509,6.134-5.642c0.21-0.238,0.395-0.488,0.57-0.744c0.044-0.065,0.087-0.13,0.13-0.197   c0.157-0.247,0.303-0.498,0.428-0.757c0.006-0.013,0.015-0.026,0.021-0.039c0.129-0.271,0.236-0.55,0.331-0.832   c0.024-0.072,0.047-0.144,0.069-0.217c0.079-0.26,0.146-0.523,0.196-0.789c0.005-0.027,0.013-0.053,0.018-0.08   c0.051-0.288,0.08-0.578,0.097-0.869c0.004-0.075,0.006-0.149,0.009-0.224c0.003-0.087,0.01-0.173,0.01-0.26   c0-0.042,0.001-0.083,0.001-0.125v-5v-72C511,172.898,486.103,148.001,455.5,148.001z M207,123.501   c0-22.324,21.742-40.487,48.472-40.5c0.007,0,0.013,0.001,0.02,0.001c0.008,0,0.016-0.001,0.023-0.001   c26.736,0.007,48.485,18.172,48.485,40.5c0,8.87-3.511,17.468-9.928,24.5h-77.145C210.511,140.968,207,132.37,207,123.501z    M55.5,163.001h241.689c0.017,0,0.033,0.002,0.05,0.002c0.018,0,0.035-0.002,0.053-0.002H455.5c22.332,0,40.5,18.168,40.5,40.5v72   v2.097c-0.063,0.057-0.125,0.114-0.189,0.17c-0.104,0.093-0.209,0.185-0.316,0.276c-0.106,0.09-0.213,0.18-0.321,0.269   c-0.108,0.089-0.217,0.179-0.327,0.267c-0.111,0.089-0.224,0.177-0.338,0.264c-0.112,0.086-0.224,0.172-0.337,0.257   c-0.116,0.087-0.235,0.172-0.353,0.257c-0.115,0.083-0.229,0.165-0.346,0.246c-0.123,0.085-0.248,0.168-0.373,0.252   c-0.117,0.078-0.234,0.156-0.353,0.233c-0.128,0.082-0.258,0.163-0.389,0.243c-0.121,0.074-0.241,0.149-0.363,0.221   c-0.132,0.079-0.266,0.155-0.401,0.231c-0.125,0.071-0.249,0.142-0.375,0.211c-0.137,0.075-0.276,0.148-0.415,0.22   c-0.127,0.067-0.254,0.133-0.383,0.198c-0.142,0.071-0.286,0.14-0.43,0.209c-0.13,0.062-0.26,0.125-0.392,0.185   c-0.146,0.067-0.295,0.131-0.444,0.195c-0.133,0.058-0.266,0.116-0.401,0.172c-0.15,0.062-0.302,0.12-0.454,0.179   c-0.138,0.054-0.275,0.108-0.415,0.159c-0.153,0.056-0.308,0.109-0.463,0.163c-0.142,0.049-0.283,0.099-0.426,0.145   c-0.157,0.051-0.317,0.099-0.476,0.147c-0.144,0.043-0.287,0.088-0.432,0.129c-0.161,0.046-0.325,0.088-0.488,0.13   c-0.147,0.038-0.294,0.078-0.443,0.114c-0.163,0.039-0.328,0.074-0.492,0.11c-0.152,0.033-0.304,0.068-0.458,0.098   c-0.166,0.033-0.334,0.061-0.502,0.091c-0.156,0.028-0.31,0.056-0.467,0.081c-0.168,0.026-0.339,0.048-0.508,0.071   c-0.16,0.021-0.319,0.045-0.48,0.063c-0.17,0.02-0.342,0.034-0.513,0.05c-0.164,0.015-0.328,0.032-0.493,0.044   c-0.172,0.012-0.347,0.02-0.521,0.029c-0.167,0.009-0.333,0.019-0.502,0.024c-0.177,0.005-0.355,0.005-0.534,0.007   c-0.168,0.002-0.336,0.005-0.506,0.003c-0.179-0.002-0.361-0.01-0.542-0.016c-0.172-0.006-0.343-0.009-0.515-0.018   c-0.18-0.01-0.362-0.026-0.543-0.039c-0.176-0.013-0.352-0.024-0.53-0.041c-0.18-0.017-0.363-0.041-0.544-0.062   c-0.181-0.021-0.361-0.04-0.543-0.065c-0.184-0.025-0.37-0.058-0.555-0.088c-0.182-0.029-0.363-0.056-0.546-0.089   c-0.185-0.034-0.373-0.075-0.559-0.113c-0.186-0.038-0.371-0.073-0.558-0.115c-0.188-0.042-0.377-0.092-0.565-0.139   c-0.188-0.047-0.374-0.089-0.563-0.14c-0.193-0.052-0.388-0.112-0.583-0.169c-0.187-0.055-0.372-0.105-0.56-0.164   c-0.198-0.062-0.399-0.133-0.599-0.201c-0.185-0.063-0.369-0.121-0.555-0.188c-0.206-0.074-0.414-0.157-0.621-0.237   c-0.182-0.07-0.363-0.135-0.546-0.209c-0.219-0.089-0.44-0.187-0.66-0.282c-0.172-0.074-0.344-0.143-0.516-0.221   c-0.245-0.111-0.492-0.232-0.738-0.35c-0.15-0.072-0.3-0.139-0.451-0.214c-0.397-0.198-0.797-0.407-1.198-0.626   c-5.774-3.155-10.624-12.568-10.589-20.554c0.048-11.206-4.691-21.946-13.003-29.468c-8.306-7.516-19.502-11.154-30.718-9.984   C391.496,222.287,376,240.106,376,260.788v109.337c0,13.264-9.693,24.579-22.068,25.759c-7.022,0.67-13.737-1.55-18.906-6.249   c-5.1-4.637-8.025-11.247-8.025-18.134v-70.712c0-20.683-15.497-38.502-35.279-40.567c-1.382-0.144-2.763-0.215-4.139-0.215   c-9.792,0-19.297,3.61-26.58,10.2c-8.312,7.522-13.051,18.263-13.002,29.468c0.04,9.334-4.064,17.096-10.979,20.763   c-8.868,4.703-18.391,4.73-26.127,0.077c-7.448-4.48-11.894-12.336-11.894-21.014v-46.625c0-20.912-15.657-38.785-35.645-40.691   c-11.112-1.057-22.206,2.615-30.42,10.083c-8.22,7.474-12.935,18.128-12.935,29.233v30.625c0,13.264-9.693,24.579-22.068,25.759   c-7.022,0.67-13.737-1.549-18.906-6.249c-5.1-4.637-8.025-11.247-8.025-18.134v-14.808c0-19.896-14.206-37.169-33.043-40.177   c-2.992-0.478-5.98-0.617-8.916-0.434c-4.894,0.305-9.647,1.505-14.04,3.522l0-28.104C15,181.169,33.168,163.001,55.5,163.001z    M488,380.001h-14.394L488,365.607V380.001z M452.394,380.001h-26.787l17-17h26.787L452.394,380.001z M404.394,380.001h-14.586   c0.775-3.176,1.193-6.485,1.193-9.875v-7.125h30.394L404.394,380.001z M233.606,380.001l17-17h26.787l-17,17H233.606z    M185.606,380.001l17-17h26.787l-17,17H185.606z M137.606,380.001l17-17h26.787l-17,17H137.606z M89.606,380.001l17-17h26.787   l-17,17H89.606z M41.606,380.001l17-17h26.787l-17,17H41.606z M68.935,312.734c8.214,7.468,19.303,11.14,30.42,10.083   C119.343,320.91,135,303.037,135,282.125v-30.625c0-6.888,2.925-13.497,8.025-18.134c5.169-4.699,11.88-6.922,18.906-6.249   c12.375,1.18,22.068,12.495,22.068,25.759v46.625c0,13.78,7.342,26.757,19.162,33.867c12.356,7.433,27.258,7.548,40.887,0.321   c11.753-6.233,19.015-19.292,18.951-34.08c-0.03-6.951,2.911-13.615,8.067-18.282c5.227-4.729,12.01-6.93,19.096-6.188   C302.408,276.418,312,287.684,312,300.788v47.212H23V244.537c3.935-1.45,8.253-1.901,12.592-1.208   C47.227,245.187,56,256.091,56,268.693v14.808C56,294.605,60.715,305.26,68.935,312.734z M37.394,363.001L23,377.394v-14.394   H37.394z M298.606,363.001H312v8.5c0,2.88,0.324,5.728,0.937,8.5h-31.33L298.606,363.001z M479.5,460.001h-448   c-4.687,0-8.5-3.813-8.5-8.5v-56.5h296.502c0.087,0,0.171-0.01,0.257-0.013c1.525,2.064,3.25,3.995,5.176,5.746   c7.284,6.623,16.827,10.262,26.648,10.262c1.254,0,2.513-0.06,3.772-0.179c11.148-1.063,20.945-7.097,27.434-15.852   c0.234,0.022,0.471,0.036,0.711,0.036H488v56.5C488,456.188,484.187,460.001,479.5,460.001z M488,348.001h-97v-87.212   c0-13.104,9.591-24.37,21.836-25.648c7.087-0.74,13.869,1.458,19.096,6.188c5.157,4.667,8.098,11.33,8.068,18.281   c-0.049,11.476,6.381,27.215,18.396,33.781c9.635,5.265,20.063,6.733,29.604,4.677V348.001z"></path>
</g>
<g>
</g>
<g>
</g>
<g>
</g>
<g>
</g>
<g>
</g>
<g>
</g>
<g>
</g>
<g>
</g>
<g>
</g>
<g>
</g>
<g>
</g>
<g>
</g>
<g>
</g>
<g>
</g>
<g>
</g>
</svg>