<svg xmlns="http://www.w3.org/2000/svg" id="chef_1_" data-name="chef (1)" width="56.656" height="54.62" viewBox="0 0 56.656 54.62"><metadata></metadata><defs><style>
    </style></defs><path id="Path_55" data-name="Path 55" class="cls-1" d="M741.718,2438.88a13.372,13.372,0,0,0-5.479.42,13.678,13.678,0,0,0-21.808,0,13.549,13.549,0,0,0-5.48-.42,13.678,13.678,0,0,0-1.586,26.84,3.574,3.574,0,0,1,2.683,3.12l0.819,8.6h0l0.468,4.91c0.2,2.1,2.853,3.54,3.969,4.06,0.16,0.07.288,0.12,0.372,0.16a25,25,0,0,0,19.311,0c0.685-.28,4.118-1.82,4.347-4.22l0.468-4.91h0l0.819-8.6a3.577,3.577,0,0,1,2.683-3.12,13.678,13.678,0,0,0-1.583-26.84h0Zm-7.484,45.89a23.093,23.093,0,0,1-17.805,0c-1.218-.51-3.061-1.69-3.148-2.6l-0.122-1.27a27.69,27.69,0,0,0,24.349,0l-0.121,1.27c-0.085.91-1.93,2.09-3.153,2.6h0Zm8.6-20.94a5.514,5.514,0,0,0-4.156,4.82l-0.946,9.93a25.747,25.747,0,0,1-24.79,0l-0.946-9.93a5.514,5.514,0,0,0-4.156-4.82,11.727,11.727,0,0,1,1.365-23.01,12.217,12.217,0,0,1,1.478-.1,11.7,11.7,0,0,1,3.813.65l0.708,0.24,0.42-.62a11.728,11.728,0,0,1,19.426.01l0.42,0.62,0.708-.25a11.656,11.656,0,0,1,5.292-.55,11.727,11.727,0,0,1,1.364,23.01h0Z" transform="translate(-697 -2433.88)"></path><path id="Path_56" data-name="Path 56" class="cls-1" d="M715.443,2467.11a0.981,0.981,0,0,0-.848,1.09l0.977,7.82a0.984,0.984,0,0,0,.968.86c0.041,0,.081-0.01.122-0.01a0.98,0.98,0,0,0,.848-1.09l-0.977-7.82A0.982,0.982,0,0,0,715.443,2467.11Z" transform="translate(-697 -2433.88)"></path><path id="Path_57" data-name="Path 57" class="cls-1" d="M722.4,2469.06a0.98,0.98,0,0,0-.977.98v7.81a0.978,0.978,0,1,0,1.955,0v-7.81A0.98,0.98,0,0,0,722.4,2469.06Z" transform="translate(-697 -2433.88)"></path><path id="Path_58" data-name="Path 58" class="cls-1" d="M735.227,2467.11a0.983,0.983,0,0,0-1.091.85l-0.977,7.82a0.982,0.982,0,0,0,.848,1.09c0.041,0,.082.01,0.122,0.01a0.983,0.983,0,0,0,.968-0.86l0.978-7.82A0.981,0.981,0,0,0,735.227,2467.11Z" transform="translate(-697 -2433.88)"></path><path id="Path_59" data-name="Path 59" class="cls-1" d="M728.266,2469.06a0.98,0.98,0,0,0-.977.98v7.81a0.977,0.977,0,1,0,1.954,0v-7.81A0.98,0.98,0,0,0,728.266,2469.06Z" transform="translate(-697 -2433.88)"></path><path id="Path_60" data-name="Path 60" class="cls-1" d="M712.644,2443.66c-8.157-.07-9.745,6.56-9.759,6.63a0.979,0.979,0,0,0,.745,1.16,1.506,1.506,0,0,0,.21.02,0.976,0.976,0,0,0,.954-0.77c0.011-.05,1.183-5.2,7.829-5.09a1.024,1.024,0,0,0,.988-0.97,0.967,0.967,0,0,0-.967-0.98h0Z" transform="translate(-697 -2433.88)"></path><path id="Path_61" data-name="Path 61" class="cls-1" d="M719.853,2439.95a0.978,0.978,0,0,0,1.194,1.55,7.451,7.451,0,0,1,8.614.02,0.97,0.97,0,0,0,.559.18,0.959,0.959,0,0,0,.8-0.42,0.976,0.976,0,0,0-.241-1.36,9.342,9.342,0,0,0-10.928.03h0Z" transform="translate(-697 -2433.88)"></path></svg>