<svg xmlns="http://www.w3.org/2000/svg" id="credit-card" width="62" height="45.06" viewBox="0 0 62 45.06"><metadata></metadata><defs><style>
    </style></defs><path class="" d="M985.005,2460.05h10v2h-10v-2Z" transform="translate(-979 -2441)"></path><path class="" d="M985.005,2466.05h15v2.01h-15v-2.01Z" transform="translate(-979 -2441)"></path><path class="" d="M985.005,2472.06h36v2h-36v-2Z" transform="translate(-979 -2441)"></path><path class="" d="M985.005,2478.05h6v2h-6v-2Z" transform="translate(-979 -2441)"></path><path class="" d="M995,2478.05h6.01v2H995v-2Z" transform="translate(-979 -2441)"></path><path class="" d="M1005.01,2478.05h6v2h-6v-2Z" transform="translate(-979 -2441)"></path><path id="Path_76" data-name="Path 76" class="" d="M1020.01,2459.05a3.929,3.929,0,0,1-4.01,0,4,4,0,1,0,2.02,7.46,3.925,3.925,0,0,0,1.99.54A4,4,0,1,0,1020.01,2459.05Zm-3.49,5.93a1.813,1.813,0,0,1-.52.07,2,2,0,0,1,0-4,2.837,2.837,0,0,1,.52.07A3.842,3.842,0,0,0,1016.52,2464.98Zm3.49,0.07a2,2,0,1,1,2-2A2.006,2.006,0,0,1,1020.01,2465.05Z" transform="translate(-979 -2441)"></path><path id="Path_77" data-name="Path 77" class="" d="M1038.91,2454.42l-41.957-13.25a2.86,2.86,0,0,0-3.759,1.95l-3.454,10.92H982a3.026,3.026,0,0,0-3,3.01v26a3.006,3.006,0,0,0,3,3.01h44.008a2.968,2.968,0,0,0,2.5-1.36,14.214,14.214,0,0,0,1.66.38,2.973,2.973,0,0,0,2.86-2.1l7.84-24.8A2.91,2.91,0,0,0,1038.91,2454.42Zm-45.02-6.88,20.61,6.5h-13.29l-8.529-2.69Zm-1.807,5.72,2.5,0.8h-2.746Zm34.927,29.79H1027a1.012,1.012,0,0,1-1,1.01H982a1.012,1.012,0,0,1-1-1.01v-26a1,1,0,0,1,1-1h44.008a1,1,0,0,1,1,1v26h0Zm4.12-.67a1.011,1.011,0,0,1-1.26.65l-0.87-.27v-17.83l6.95,2.2Zm5.42-17.17-7.55-2.38v-4.2l8.75,2.76Zm2.41-7.63-0.6,1.91-9.41-2.97a2.986,2.986,0,0,0-2.94-2.46h-4.87l-26.652-8.42,0.6-1.91a1.009,1.009,0,0,1,1.257-.65l41.957,13.25A0.929,0.929,0,0,1,1038.96,2457.58Z" transform="translate(-979 -2441)"></path></svg>