<svg xmlns="http://www.w3.org/2000/svg" id="dish" width="60.875" height="54.97" viewBox="0 0 60.875 54.97"><metadata></metadata><defs><style>
      .cls-1 {
        fill: #f4777a;
        fill-rule: evenodd;
      }
    </style></defs><path id="Path_70" data-name="Path 70" class="cls-1" d="M393.621,2450.17a1.008,1.008,0,0,0,1.435,0,1.019,1.019,0,0,0,0-1.44,2.638,2.638,0,0,1,0-3.73,4.671,4.671,0,0,0,0-6.61,1.013,1.013,0,1,0-1.435,1.43,2.641,2.641,0,0,1,0,3.74A4.682,4.682,0,0,0,393.621,2450.17Z" transform="translate(-375 -2432.03)"></path><path id="Path_71" data-name="Path 71" class="cls-1" d="M415.947,2450.17a1.008,1.008,0,0,0,1.435,0,1.021,1.021,0,0,0,0-1.44,2.638,2.638,0,0,1,0-3.73,4.669,4.669,0,0,0,1.37-3.31,4.62,4.62,0,0,0-1.37-3.3,1.013,1.013,0,1,0-1.435,1.43,2.644,2.644,0,0,1,0,3.74A4.68,4.68,0,0,0,415.947,2450.17Z" transform="translate(-375 -2432.03)"></path><path id="Path_72" data-name="Path 72" class="cls-1" d="M404.784,2444.08a1.013,1.013,0,0,0,1.435-1.43,2.65,2.65,0,0,1,0-3.74,4.671,4.671,0,0,0,0-6.61,1.013,1.013,0,0,0-1.435,1.43,2.641,2.641,0,0,1,0,3.74,4.68,4.68,0,0,0,0,6.61h0Z" transform="translate(-375 -2432.03)"></path><path id="Path_73" data-name="Path 73" class="cls-1" d="M400.72,2458.09a1.71,1.71,0,0,0,.224-0.02,20.368,20.368,0,0,1,4.487-.5h0.013a1.015,1.015,0,0,0,0-2.03h-0.015a21.976,21.976,0,0,0-4.931.55A1.012,1.012,0,0,0,400.72,2458.09Z" transform="translate(-375 -2432.03)"></path><path id="Path_74" data-name="Path 74" class="cls-1" d="M384.966,2474.8a0.578,0.578,0,0,0,.183.02,1.012,1.012,0,0,0,1-.83,20.306,20.306,0,0,1,9.322-13.76,1.016,1.016,0,0,0-1.034-1.75,22.369,22.369,0,0,0-10.284,15.14,1.009,1.009,0,0,0,.816,1.18h0Z" transform="translate(-375 -2432.03)"></path><path id="Path_75" data-name="Path 75" class="cls-1" d="M431.446,2473.42a26.451,26.451,0,0,0-20.972-21.45,4.765,4.765,0,0,0,.043-0.49,5.074,5.074,0,0,0-10.147,0,4.5,4.5,0,0,0,.043.49,26.454,26.454,0,0,0-20.973,21.45c-2.12,1.2-4.44,2.97-4.44,4.95,0,5.16,15.741,8.63,30.444,8.63s30.444-3.47,30.444-8.63c0-1.98-2.321-3.75-4.442-4.95h0Zm-29.04-21.76c0-.06-0.007-0.12-0.007-0.18a3.045,3.045,0,0,1,6.089,0q0,0.09-.006.18c-0.048-.01-0.1-0.01-0.142-0.02l-1.053-.09-0.389-.03c-0.481-.02-0.965-0.04-1.453-0.04s-0.972.02-1.454,0.04l-0.388.03-1.054.09c-0.048.01-.1,0.01-0.143,0.02h0Zm-0.617,2.13c0.545-.09,1.093-0.15,1.643-0.19,0.113-.01.225-0.02,0.338-0.02a23.382,23.382,0,0,1,3.348,0c0.113,0,.225.01,0.338,0.02,0.55,0.04,1.1.1,1.642,0.19a24.392,24.392,0,0,1,20.451,20.61c0.046,0.33.084,0.65,0.117,0.98,0.011,0.11.027,0.22,0.037,0.34,0.039,0.45.069,0.9,0.083,1.35a108.436,108.436,0,0,1-48.684,0q0.024-.675.084-1.35c0.01-.12.024-0.23,0.036-0.34,0.033-.33.071-0.65,0.118-0.98A24.39,24.39,0,0,1,401.789,2453.79Zm3.655,31.18c-17.349,0-28.415-4.33-28.415-6.6,0-.39.481-1.24,2.1-2.36,0,0.06,0,.12-0.006.17-0.035.56-.059,1.12-0.059,1.69v0.8l0.778,0.18a110.068,110.068,0,0,0,51.213,0l0.778-.18v-0.8c0-.57-0.024-1.13-0.059-1.69,0-.05,0-0.11-0.006-0.17,1.613,1.12,2.094,1.97,2.094,2.36,0,2.27-11.065,6.6-28.413,6.6h0Z" transform="translate(-375 -2432.03)"></path></svg>