<svg id="food" xmlns="http://www.w3.org/2000/svg" width="auto" height="85" viewBox="0 0 75 70">
  <metadata><?xpacket begin="﻿" id="W5M0MpCehiHzreSzNTczkc9d"?>
<x:xmpmeta xmlns:x="adobe:ns:meta/" x:xmptk="Adobe XMP Core 5.6-c142 79.160924, 2017/07/13-01:06:39        ">
   <rdf:RDF xmlns:rdf="http://www.w3.org/1999/02/22-rdf-syntax-ns#">
      <rdf:Description rdf:about=""/>
   </rdf:RDF>
</x:xmpmeta>
                                                                                                    
                                                                                                    
                                                                                                    
                                                                                                    
                                                                                                    
                                                                                                    
                                                                                                    
                                                                                                    
                                                                                                    
                                                                                                    
                                                                                                    
                                                                                                    
                                                                                                    
                                                                                                    
                                                                                                    
                                                                                                    
                                                                                                    
                                                                                                    
                                                                                                    
                                                                                                    
                           
<?xpacket end="w"?></metadata>
<defs>
    <style>
      .cls-1 {
        fill-rule: evenodd;
      }
    </style>
  </defs>
  <path id="Path_6" data-name="Path 6" class="cls-1" d="M52.654,34.07H0.892A0.892,0.892,0,0,0,0,34.963,18.763,18.763,0,0,0,18.741,53.7H34.805A18.763,18.763,0,0,0,53.546,34.963,0.892,0.892,0,0,0,52.654,34.07ZM34.805,51.919H18.741A16.978,16.978,0,0,1,1.808,35.855h49.93A16.978,16.978,0,0,1,34.805,51.919Z" transform="translate(10.734 8.062)"/>
  <path id="Path_7" data-name="Path 7" class="cls-1" d="M45.518,12.657c0-.065,0-0.13-0.007-0.229a3.706,3.706,0,0,0-2.5-3.151l1.01-1.01a4.779,4.779,0,0,0,.394-6.4,4.691,4.691,0,0,0-6.6-.638c-0.114.094-.223,0.193-0.333,0.3l-1.1,1.114A3.725,3.725,0,0,0,33.211.16a3.567,3.567,0,0,0-3.756,3.374c0,0.065,0,.13,0,0.194V5.1a3.547,3.547,0,0,0-1.781-.48c-0.064,0-.13,0-0.229.007A3.7,3.7,0,0,0,24.1,8.341V9.555a3.558,3.558,0,0,0-1.781-.477c-0.064,0-.129,0-0.228.007A3.7,3.7,0,0,0,18.741,12.8V26.038a0.892,0.892,0,0,0,.893.892H34.805a3.567,3.567,0,0,0,3.089-5.353H39.1a3.694,3.694,0,0,0,3.736-3.38,3.547,3.547,0,0,0-.488-2A3.57,3.57,0,0,0,45.518,12.657Zm-2.309,1.26a1.776,1.776,0,0,1-1.262.52h-2.68a0.893,0.893,0,1,0,0,1.785l0.1,0a1.781,1.781,0,0,1,1.69,1.843,1.9,1.9,0,0,1-1.94,1.724h-4.31a0.892,0.892,0,0,0,0,1.785,1.785,1.785,0,1,1,0,3.57H20.526V12.788a1.9,1.9,0,0,1,1.69-1.922l0.1,0A1.786,1.786,0,0,1,24.1,12.645v0.006a0.892,0.892,0,0,0,.892.893h0a0.892,0.892,0,0,0,.892-0.892h0V8.326A1.9,1.9,0,0,1,27.571,6.4l0.1,0A1.788,1.788,0,0,1,29.45,8.185V8.19a0.892,0.892,0,0,0,.892.892h0a0.893,0.893,0,0,0,.892-0.891h0V3.728l0-.1a1.769,1.769,0,0,1,1.842-1.69A1.911,1.911,0,0,1,34.8,3.881V4.622a0.892,0.892,0,0,0,1.528.626L38.753,2.79c0.066-.065.134-0.127,0.2-0.185a2.9,2.9,0,0,1,4.072.382A3,3,0,0,1,42.768,7L40.421,9.344a0.892,0.892,0,0,0,.631,1.523H41.84a1.9,1.9,0,0,1,1.89,1.69l0,0.1A1.774,1.774,0,0,1,43.209,13.917Z" transform="translate(10.734 8.062)"/>
  <path class="cls-1" d="M13.649,30.76L38.637,5.772,39.9,7.034,14.911,32.022Z" transform="translate(10.734 8.062)"/>
  <path class="cls-1" d="M33.018,7.3H34.8v4.462H33.018V7.3Z" transform="translate(10.734 8.062)"/>
  <path class="cls-1" d="M27.664,11.765h1.785v5.355H27.664V11.765Z" transform="translate(10.734 8.062)"/>
  <path class="cls-1" d="M22.309,16.218h1.785v6.247H22.309V16.218Z" transform="translate(10.734 8.062)"/>
  <path class="cls-1" d="M33.911,10.872h4.462v1.785H33.911V10.872Z" transform="translate(10.734 8.062)"/>
  <rect x="39.297" y="24.281" width="5.344" height="1.781"/>
  <path class="cls-1" d="M23.2,21.573h6.247v1.785H23.2V21.573Z" transform="translate(10.734 8.062)"/>
  <path id="Path_8" data-name="Path 8" class="cls-1" d="M16.657,4.282l0-.005a4.118,4.118,0,0,0-5.7-1.139c-0.059.038-.117,0.079-0.183,0.129l-0.321.245-0.309-.222A4.105,4.105,0,1,0,5.246,9.824L6,10.411v0.457a4.462,4.462,0,1,0,8.923,0V10.41l0.79-.617A4.108,4.108,0,0,0,16.657,4.282Zm-2.036,4.1-1.142.893a0.893,0.893,0,0,0-.343.7v0.892a2.677,2.677,0,1,1-5.354,0V9.975a0.89,0.89,0,0,0-.343-0.7L6.3,8.38a0.867,0.867,0,0,0-.108-0.072A2.32,2.32,0,1,1,8.948,4.622a0.935,0.935,0,0,0,.1.081L9.938,5.345A0.892,0.892,0,0,0,11,5.332l0.941-.708A2.308,2.308,0,0,1,14.622,8.38Z" transform="translate(10.734 8.062)"/>
  <path class="cls-1" d="M19.632,1.046h1.785V2.831H19.632V1.046Z" transform="translate(10.734 8.062)"/>
  <path class="cls-1" d="M24.987,29.6h1.785v1.785H24.987V29.6Z" transform="translate(10.734 8.062)"/>
  <path id="Path_9" data-name="Path 9" class="cls-1" d="M48.192,5.513V7.3a1.785,1.785,0,0,1,0,3.57v1.785A3.57,3.57,0,0,0,48.192,5.513Z" transform="translate(10.734 8.062)"/>
  <path class="cls-1" d="M1.783,13.55H3.568v1.785H1.783V13.55Z" transform="translate(10.734 8.062)"/>
  <path class="cls-1" d="M0,9.98H1.785v1.785H0V9.98Z" transform="translate(10.734 8.062)"/>
  <path id="Path_10" data-name="Path 10" class="cls-1" d="M34.805,28.716a3.573,3.573,0,0,0-3.57,3.57H33.02a1.785,1.785,0,1,1,3.57,0h1.785A3.573,3.573,0,0,0,34.805,28.716Z" transform="translate(10.734 8.062)"/>
  <path id="Path_11" data-name="Path 11" class="cls-1" d="M10.709,20.684H10.6a3.571,3.571,0,0,0-6.914,0H3.57a3.57,3.57,0,0,0,0,7.139h7.14A3.57,3.57,0,0,0,10.709,20.684Zm0,5.355H3.57a1.785,1.785,0,1,1,0-3.57H4.462a0.893,0.893,0,0,0,.893-0.892,1.785,1.785,0,0,1,3.57,0,0.893,0.893,0,0,0,.892.892h0.893A1.785,1.785,0,0,1,10.709,26.039Z" transform="translate(10.734 8.062)"/>
  <path id="Path_12" data-name="Path 12" class="cls-1" d="M8.924,26.038H5.355a0.893,0.893,0,0,0-.893.892V30.5a0.892,0.892,0,0,0,.893.892h3.57A0.892,0.892,0,0,0,9.817,30.5v-3.57A0.893,0.893,0,0,0,8.924,26.038Zm-0.892,3.57H6.247V27.823H8.032v1.785h0Z" transform="translate(10.734 8.062)"/>
  <path id="Path_13" data-name="Path 13" class="cls-1" d="M47.3,23.361a2.677,2.677,0,1,0,2.677,2.677A2.681,2.681,0,0,0,47.3,23.361Zm0,3.571a0.892,0.892,0,1,1,.892-0.892A0.893,0.893,0,0,1,47.3,26.932Z" transform="translate(10.734 8.062)"/>
  <path id="Path_14" data-name="Path 14" class="cls-1" d="M47.3,19.791a6.247,6.247,0,1,0,6.247,6.247A6.255,6.255,0,0,0,47.3,19.791Zm0,10.71a4.462,4.462,0,1,1,4.462-4.462A4.468,4.468,0,0,1,47.3,30.5Z" transform="translate(10.734 8.062)"/>
</svg>
