<svg id="food" xmlns="http://www.w3.org/2000/svg" width="53.531" height="53.563" viewBox="0 0 53.531 53.563">
  <metadata><?xpacket begin="﻿" id="W5M0MpCehiHzreSzNTczkc9d"?>
<x:xmpmeta xmlns:x="adobe:ns:meta/" x:xmptk="Adobe XMP Core 5.6-c142 79.160924, 2017/07/13-01:06:39        ">
   <rdf:RDF xmlns:rdf="http://www.w3.org/1999/02/22-rdf-syntax-ns#">
      <rdf:Description rdf:about=""/>
   </rdf:RDF>
</x:xmpmeta>
                                                                                                    
                                                                                                    
                                                                                                    
                                                                                                    
                                                                                                    
                                                                                                    
                                                                                                    
                                                                                                    
                                                                                                    
                                                                                                    
                                                                                                    
                                                                                                    
                                                                                                    
                                                                                                    
                                                                                                    
                                                                                                    
                                                                                                    
                                                                                                    
                                                                                                    
                                                                                                    
                           
<?xpacket end="w"?></metadata>
<defs>
    <style>
      .cls-1 {
        fill-rule: evenodd;
      }
    </style>
  </defs>
  <path id="Path_6" data-name="Path 6" class="cls-1" d="M495.654,818.07H443.892a0.892,0.892,0,0,0-.892.893A18.763,18.763,0,0,0,461.741,837.7h16.064a18.763,18.763,0,0,0,18.741-18.741A0.892,0.892,0,0,0,495.654,818.07Zm-17.849,17.849H461.741a16.978,16.978,0,0,1-16.933-16.064h49.93A16.978,16.978,0,0,1,477.805,835.919Z" transform="translate(-443 -784.156)"/>
  <path id="Path_7" data-name="Path 7" class="cls-1" d="M488.518,796.657c0-.065,0-0.13-0.007-0.229a3.706,3.706,0,0,0-2.5-3.151l1.01-1.011a4.779,4.779,0,0,0,.395-6.4,4.691,4.691,0,0,0-6.6-.638c-0.113.093-.223,0.192-0.333,0.3l-1.1,1.114a3.725,3.725,0,0,0-3.18-2.485,3.566,3.566,0,0,0-3.756,3.374c0,0.065,0,.13,0,0.194V789.1a3.539,3.539,0,0,0-1.781-.481c-0.064,0-.13,0-0.229.007a3.7,3.7,0,0,0-3.344,3.718v1.214a3.557,3.557,0,0,0-1.781-.477c-0.065,0-.13,0-0.229.008a3.7,3.7,0,0,0-3.345,3.718v13.234a0.893,0.893,0,0,0,.893.893h15.171a3.567,3.567,0,0,0,3.09-5.353H482.1a3.693,3.693,0,0,0,3.736-3.38,1.753,1.753,0,0,1,1.633-3.017A3.546,3.546,0,0,0,488.518,796.657Zm-2.309,1.26a1.774,1.774,0,0,1-1.262.521h-2.68a0.893,0.893,0,0,0,0,1.785l0.1,0a1.782,1.782,0,0,1,1.691,1.843,1.9,1.9,0,0,1-1.941,1.724h-4.31a0.893,0.893,0,0,0,0,1.785,1.785,1.785,0,0,1,0,3.57H463.526V796.788a1.9,1.9,0,0,1,1.69-1.922l0.1,0a1.787,1.787,0,0,1,1.782,1.782v0.007a0.892,0.892,0,0,0,.891.892h0a0.893,0.893,0,0,0,.893-0.891h0v-4.326a1.9,1.9,0,0,1,1.69-1.922l0.1,0a1.787,1.787,0,0,1,1.783,1.784v0.005a0.892,0.892,0,0,0,.892.893h0a0.893,0.893,0,0,0,.893-0.892h0v-4.462l0-.1a1.77,1.77,0,0,1,1.842-1.69,1.911,1.911,0,0,1,1.724,1.942v0.741a0.892,0.892,0,0,0,1.528.625l2.421-2.457c0.066-.065.134-0.127,0.205-0.185a2.9,2.9,0,0,1,4.072.382,3,3,0,0,1-.262,4.01l-2.347,2.347a0.893,0.893,0,0,0,.631,1.524h0.788a1.9,1.9,0,0,1,1.89,1.69l0,0.1A1.774,1.774,0,0,1,486.209,797.917Z" transform="translate(-443 -784.156)"/>
  <path class="cls-1" d="M456.649,814.76l24.988-24.988,1.262,1.262-24.988,24.988Z" transform="translate(-443 -784.156)"/>
  <path class="cls-1" d="M476.018,791.3H477.8v4.463h-1.785V791.3Z" transform="translate(-443 -784.156)"/>
  <path class="cls-1" d="M470.664,795.765h1.785v5.354h-1.785v-5.354Z" transform="translate(-443 -784.156)"/>
  <rect x="22.313" y="16.063" width="1.781" height="6.25"/>
  <path class="cls-1" d="M476.911,794.872h4.462v1.785h-4.462v-1.785Z" transform="translate(-443 -784.156)"/>
  <rect x="28.563" y="16.063" width="5.343" height="1.781"/>
  <path class="cls-1" d="M466.2,805.573h6.247v1.784H466.2v-1.784Z" transform="translate(-443 -784.156)"/>
  <path id="Path_8" data-name="Path 8" class="cls-1" d="M459.657,788.282a0.009,0.009,0,0,1,0,0,4.118,4.118,0,0,0-5.7-1.139c-0.059.039-.117,0.08-0.183,0.129l-0.321.244-0.309-.222a4.105,4.105,0,1,0-4.891,6.535L449,794.411v0.457a4.462,4.462,0,1,0,8.924,0V794.41l0.789-.617A4.108,4.108,0,0,0,459.657,788.282Zm-2.035,4.1-1.143.892a0.894,0.894,0,0,0-.343.7v0.893a2.677,2.677,0,1,1-5.354,0v-0.893a0.891,0.891,0,0,0-.343-0.7l-1.142-.892a0.974,0.974,0,0,0-.108-0.073,2.257,2.257,0,0,1-.462-0.346,2.32,2.32,0,0,1,3.221-3.339,1.109,1.109,0,0,0,.1.081l0.892,0.642a0.891,0.891,0,0,0,1.061-.013l0.941-.708A2.308,2.308,0,0,1,457.622,792.38Z" transform="translate(-443 -784.156)"/>
  <path class="cls-1" d="M462.632,785.046h1.785v1.785h-1.785v-1.785Z" transform="translate(-443 -784.156)"/>
  <path class="cls-1" d="M467.987,813.605h1.784v1.784h-1.784v-1.784Z" transform="translate(-443 -784.156)"/>
  <path id="Path_9" data-name="Path 9" class="cls-1" d="M491.192,789.513V791.3a1.785,1.785,0,0,1,0,3.57v1.785A3.57,3.57,0,0,0,491.192,789.513Z" transform="translate(-443 -784.156)"/>
  <path class="cls-1" d="M444.783,797.55h1.785v1.784h-1.785V797.55Z" transform="translate(-443 -784.156)"/>
  <path class="cls-1" d="M443,793.98h1.785v1.785H443V793.98Z" transform="translate(-443 -784.156)"/>
  <path id="Path_10" data-name="Path 10" class="cls-1" d="M477.805,812.716a3.573,3.573,0,0,0-3.57,3.569h1.785a1.785,1.785,0,0,1,3.57,0h1.785A3.573,3.573,0,0,0,477.805,812.716Z" transform="translate(-443 -784.156)"/>
  <path id="Path_11" data-name="Path 11" class="cls-1" d="M453.709,804.684H453.6a3.571,3.571,0,0,0-6.915,0H446.57a3.57,3.57,0,1,0,0,7.139h7.139A3.57,3.57,0,1,0,453.709,804.684Zm0,5.355H446.57a1.785,1.785,0,0,1,0-3.57h0.892a0.892,0.892,0,0,0,.893-0.892,1.785,1.785,0,1,1,3.569,0,0.892,0.892,0,0,0,.893.892h0.892A1.785,1.785,0,1,1,453.709,810.039Z" transform="translate(-443 -784.156)"/>
  <path id="Path_12" data-name="Path 12" class="cls-1" d="M451.924,810.038h-3.569a0.893,0.893,0,0,0-.893.893V814.5a0.893,0.893,0,0,0,.893.893h3.569a0.893,0.893,0,0,0,.893-0.893v-3.569A0.893,0.893,0,0,0,451.924,810.038Zm-0.892,3.57h-1.785v-1.785h1.785v1.785h0Z" transform="translate(-443 -784.156)"/>
  <path id="Path_13" data-name="Path 13" class="cls-1" d="M490.3,807.361a2.678,2.678,0,1,0,2.677,2.677A2.68,2.68,0,0,0,490.3,807.361Zm0,3.571a0.893,0.893,0,1,1,.893-0.893A0.893,0.893,0,0,1,490.3,810.932Z" transform="translate(-443 -784.156)"/>
  <path id="Path_14" data-name="Path 14" class="cls-1" d="M490.3,803.791a6.247,6.247,0,1,0,6.247,6.247A6.255,6.255,0,0,0,490.3,803.791Zm0,10.71a4.462,4.462,0,1,1,4.462-4.462A4.468,4.468,0,0,1,490.3,814.5Z" transform="translate(-443 -784.156)"/>
</svg>
