<svg id="hamburger" xmlns="http://www.w3.org/2000/svg" width="auto" height="65" viewBox="0 0 69 66">
  <metadata><?xpacket begin="﻿" id="W5M0MpCehiHzreSzNTczkc9d"?>
<x:xmpmeta xmlns:x="adobe:ns:meta/" x:xmptk="Adobe XMP Core 5.6-c142 79.160924, 2017/07/13-01:06:39        ">
   <rdf:RDF xmlns:rdf="http://www.w3.org/1999/02/22-rdf-syntax-ns#">
      <rdf:Description rdf:about=""/>
   </rdf:RDF>
</x:xmpmeta>
                                                                                                    
                                                                                                    
                                                                                                    
                                                                                                    
                                                                                                    
                                                                                                    
                                                                                                    
                                                                                                    
                                                                                                    
                                                                                                    
                                                                                                    
                                                                                                    
                                                                                                    
                                                                                                    
                                                                                                    
                                                                                                    
                                                                                                    
                                                                                                    
                                                                                                    
                                                                                                    
                           
<?xpacket end="w"?></metadata>
<defs>
    <style>
      .cls-1 {
        fill: #2a2d32;
        fill-rule: evenodd;
      }
    </style>
  </defs>
  <path class="cls-1" d="M861.138,780.446h1.826v10.96h-1.826v-10.96Z" transform="translate(-827.5 -773.938)"/>
  <path id="Path_26" data-name="Path 26" class="cls-1" d="M869.358,779.532h-7.307a0.914,0.914,0,0,0-.913.914v5.48a0.913,0.913,0,0,0,.913.913h7.307a0.913,0.913,0,0,0,.913-0.913v-5.48A0.914,0.914,0,0,0,869.358,779.532Zm-0.913,5.481h-5.481v-3.654h5.481v3.654Z" transform="translate(-827.5 -773.938)"/>
  <path id="Path_27" data-name="Path 27" class="cls-1" d="M869.358,790.493H854.744a14.631,14.631,0,0,0-14.614,14.614,0.913,0.913,0,0,0,.913.913h42.016a0.913,0.913,0,0,0,.913-0.913A14.631,14.631,0,0,0,869.358,790.493Zm-27.37,13.7a12.807,12.807,0,0,1,12.756-11.874h14.614a12.806,12.806,0,0,1,12.756,11.874H841.988Z" transform="translate(-827.5 -773.938)"/>
  <path id="Path_28" data-name="Path 28" class="cls-1" d="M880.567,808.949a3.506,3.506,0,0,1-4.264,0,5.346,5.346,0,0,0-6.514.05,3.5,3.5,0,0,1-4.26,0,5.351,5.351,0,0,0-6.489,0,3.525,3.525,0,0,1-4.27,0,5.331,5.331,0,0,0-6.481,0,3.516,3.516,0,0,1-4.252.013A5.28,5.28,0,0,0,840,807.9l0.26,1.809a3.452,3.452,0,0,1,2.649.734,5.351,5.351,0,0,0,6.49,0,3.506,3.506,0,0,1,4.261,0,5.351,5.351,0,0,0,6.488,0,3.525,3.525,0,0,1,4.27,0,5.336,5.336,0,0,0,6.491,0,3.515,3.515,0,0,1,4.287-.04,5.337,5.337,0,0,0,6.489,0,3.461,3.461,0,0,1,2.25-.721l0.077-1.825A5.2,5.2,0,0,0,880.567,808.949Z" transform="translate(-827.5 -773.938)"/>
  <path id="Path_29" data-name="Path 29" class="cls-1" d="M879.405,813.328H844.7a4.567,4.567,0,0,0,0,9.134h34.708A4.567,4.567,0,0,0,879.405,813.328Zm0,7.307H844.7a2.74,2.74,0,1,1,0-5.48h34.708A2.74,2.74,0,1,1,879.405,820.635Z" transform="translate(-827.5 -773.938)"/>
  <path id="Path_30" data-name="Path 30" class="cls-1" d="M883.059,824.288H841.043a0.914,0.914,0,0,0-.913.914v4.567a4.572,4.572,0,0,0,4.567,4.567h34.708a4.573,4.573,0,0,0,4.568-4.567V825.2A0.914,0.914,0,0,0,883.059,824.288Zm-0.913,5.481a2.744,2.744,0,0,1-2.741,2.74H844.7a2.744,2.744,0,0,1-2.741-2.74v-3.654h40.19v3.654Z" transform="translate(-827.5 -773.938)"/>
  <path id="Path_31" data-name="Path 31" class="cls-1" d="M877.043,813.5l-9.511,6.916-9.51-6.916-1.075,1.477,10.047,7.307a0.913,0.913,0,0,0,1.075,0l10.048-7.307Z" transform="translate(-827.5 -773.938)"/>
  <path class="cls-1" d="M866.618,794.146h1.827v1.827h-1.827v-1.827Z" transform="translate(-827.5 -773.938)"/>
  <path class="cls-1" d="M861.138,794.146h1.826v1.827h-1.826v-1.827Z" transform="translate(-827.5 -773.938)"/>
  <path class="cls-1" d="M855.657,794.146h1.827v1.827h-1.827v-1.827Z" transform="translate(-827.5 -773.938)"/>
  <path class="cls-1" d="M863.878,797.8h1.827v1.827h-1.827V797.8Z" transform="translate(-827.5 -773.938)"/>
  <path class="cls-1" d="M858.4,797.8h1.827v1.827H858.4V797.8Z" transform="translate(-827.5 -773.938)"/>
  <path class="cls-1" d="M852.917,797.8h1.827v1.827h-1.827V797.8Z" transform="translate(-827.5 -773.938)"/>
  <path class="cls-1" d="M869.358,797.8h1.827v1.827h-1.827V797.8Z" transform="translate(-827.5 -773.938)"/>
</svg>
