<svg xmlns="http://www.w3.org/2000/svg" xmlns:xlink="http://www.w3.org/1999/xlink" viewBox="0 0 192.806 192.806"><path d="m160.197,121.996c-9.543-1.193-20.823-2.085-33.11-2.642 21.089-10.531 47.327-23.853 53.252-27.848 12.925-8.722 16.348-26.335 7.63-39.265-5.267-7.807-14.038-12.468-23.466-12.468-0.427,0-0.854,0.01-1.279,0.029-0.564-9.539-5.961-18.527-14.97-23.32-4.078-2.168-8.662-3.313-13.258-3.313-5.136,0-10.111,1.417-14.419,3.966-4.975-8.169-13.964-13.58-24.175-13.58-10.213,0-19.202,5.41-24.175,13.579-4.308-2.547-9.281-3.964-14.415-3.964-4.598,0-9.185,1.147-13.26,3.315-9.01,4.789-14.407,13.777-14.971,23.317-0.426-0.02-0.852-0.029-1.279-0.029-9.427,0-18.199,4.662-23.466,12.47-8.72,12.928-5.297,30.541 7.632,39.264 5.924,3.995 32.16,17.315 53.249,27.847-12.286,0.557-23.567,1.449-33.109,2.642-24.075,3.009-32.608,7.013-32.608,15.299 0,29.133 42.345,51.953 96.402,51.953s96.403-22.82 96.403-51.953c0.001-8.286-8.533-12.29-32.608-15.299zm4.306-67.222c4.434,0 8.557,2.189 11.029,5.855 4.096,6.072 2.487,14.346-3.582,18.442-4.891,3.298-28.938,15.542-50.386,26.267l37.244-49.264c1.776-0.849 3.719-1.3 5.695-1.3zm-29.507-26.604c2.18,0 4.271,0.524 6.215,1.557 6.058,3.223 8.624,10.477 6.049,16.75l-36.283,47.993 13.217-60.761c2.473-3.439 6.515-5.539 10.802-5.539zm-38.594-9.613c6.788,0 12.414,5.093 13.182,11.739l-13.182,60.598-13.178-60.599c0.764-6.645 6.388-11.738 13.178-11.738zm-44.807,11.174c1.945-1.035 4.037-1.559 6.218-1.559 4.285,0 8.329,2.101 10.803,5.54l13.214,60.76-36.286-47.996c-2.572-6.274-0.007-13.525 6.051-16.745zm-34.323,30.901c2.474-3.668 6.598-5.858 11.03-5.858 1.975,0 3.918,0.451 5.693,1.3l37.244,49.263c-21.445-10.724-45.493-22.967-50.383-26.265-6.071-4.096-7.678-12.368-3.584-18.44zm79.107,73.052c0.006,0 0.012,0.001 0.017,0.001 0.002,0 0.005-0.001 0.007-0.001s0.005,0.001 0.007,0.001c0.005,0 0.011-0.001 0.017-0.001 29.072,0.001 50.858,1.673 64.903,3.612-14.049,1.939-35.843,3.612-64.927,3.612s-50.877-1.673-64.926-3.612c14.044-1.939 35.832-3.611 64.902-3.612zm59.533,28.337c-15.77,7.885-36.904,12.228-59.51,12.228s-43.739-4.342-59.51-12.228c-6.651-3.326-11.929-7.124-15.645-11.137 3.328,0.614 7.096,1.179 11.36,1.712 17.09,2.136 39.745,3.313 63.794,3.313s46.705-1.176 63.795-3.313c4.265-0.533 8.031-1.098 11.359-1.712-3.714,4.013-8.991,7.811-15.643,11.137z"></path></svg>