<svg id="Page-1" xmlns="http://www.w3.org/2000/svg" width="63" height="60" viewBox="0 0 63 60">
  <metadata><?xpacket begin="﻿" id="W5M0MpCehiHzreSzNTczkc9d"?>
<x:xmpmeta xmlns:x="adobe:ns:meta/" x:xmptk="Adobe XMP Core 5.6-c142 79.160924, 2017/07/13-01:06:39        ">
   <rdf:RDF xmlns:rdf="http://www.w3.org/1999/02/22-rdf-syntax-ns#">
      <rdf:Description rdf:about=""/>
   </rdf:RDF>
</x:xmpmeta>
                                                                                                    
                                                                                                    
                                                                                                    
                                                                                                    
                                                                                                    
                                                                                                    
                                                                                                    
                                                                                                    
                                                                                                    
                                                                                                    
                                                                                                    
                                                                                                    
                                                                                                    
                                                                                                    
                                                                                                    
                                                                                                    
                                                                                                    
                                                                                                    
                                                                                                    
                                                                                                    
                           
<?xpacket end="w"?></metadata>
<defs>
    <style>
      .cls-1 {
        fill: #2a2d32;
        fill-rule: evenodd;
      }
    </style>
  </defs>
  <g id="_008---Coffee-and-Croissant" data-name="008---Coffee-and-Croissant">
    <path id="Shape" class="cls-1" d="M690.844,823.669h-6.066a12.5,12.5,0,0,0,5.55-4.689,1.709,1.709,0,0,0,.1-1.571c-0.06-.135-0.133-0.3-0.216-0.473a16.441,16.441,0,0,0,2.352-5.066,18.7,18.7,0,0,0,.28-5.97,2.194,2.194,0,0,0-1.465-1.835c-0.912-4.376-2.139-5.075-2.555-5.306a2,2,0,0,0-1.73-.122c-2.226.848-2.235,2.838-2.242,4.592,0,0.42-.013.849-0.04,1.277a2.554,2.554,0,0,0-1.842,1.679,6.166,6.166,0,0,1-.741,1.481,10.764,10.764,0,0,0-1.145-.527,1.641,1.641,0,0,0-1.153,0l-4.618,1.765a1.672,1.672,0,0,0-.855.741,12.281,12.281,0,0,0-.576,1.2,6.133,6.133,0,0,1-.707-0.265v-10.3a1.8,1.8,0,0,0-1.8-1.8H649.791a1.8,1.8,0,0,0-1.8,1.8v1.225a10.122,10.122,0,0,0-2.545-.326c-6.448,0-6.448,7.087-6.448,9.416,0,5.206,2.53,8.57,6.448,8.57a11.366,11.366,0,0,0,3.067-.439,9.822,9.822,0,0,0,3.671,4.935H644.71a1.954,1.954,0,0,0-2.113,1.8v1.8c0,2.017,2,3.6,4.541,3.6h41.278c2.547,0,4.541-1.58,4.541-3.6v-1.8a1.953,1.953,0,0,0-2.113-1.8h0Zm-3.113-23.358a0.2,0.2,0,0,1,.212.011c0.154,0.085.892,0.653,1.571,3.63-0.756.032-1.737,0.1-2.878,0.246,0.012-.335.015-0.663,0.015-0.968C686.656,801.367,686.747,800.686,687.731,800.311Zm-3.047,6.419a0.765,0.765,0,0,1,.6-0.508c0.167-.034.331-0.058,0.514-0.09a29.9,29.9,0,0,1,4.752-.416h0.059a0.42,0.42,0,0,1,.445.36,16.875,16.875,0,0,1-.239,5.366,13.563,13.563,0,0,1-1.562,3.639,20.6,20.6,0,0,0-5.5-6.475A7.946,7.946,0,0,0,684.684,806.73Zm-8.678,3.832,4.508-1.722c4.814,1.893,7.734,8.069,8.273,9.227-0.5.859-2.1,3.029-6.213,4.6a15,15,0,0,1-4.412,1h-1.186a7.114,7.114,0,0,1-1.847-.332c-0.051-.221-0.121-0.523-0.19-0.886-0.428-2.228-1.175-7.826,1.063-11.889h0Zm-5.478,11.72a17.109,17.109,0,0,0,2.756,1.054c0.027,0.126.053,0.233,0.075,0.333h-4.413a9.942,9.942,0,0,0,1.582-1.387h0Zm2.4-.951a11.983,11.983,0,0,1-3.374-1.749,15.482,15.482,0,0,1-3.375-3.966,0.538,0.538,0,0,1,.162-0.656l0.033-.033a31.963,31.963,0,0,1,3.949-2.9c0.143-.09.286-0.186,0.459-0.287a0.658,0.658,0,0,1,.693-0.015,7.256,7.256,0,0,0,1.813.823,22.3,22.3,0,0,0-.36,8.788h0ZM650,817.4a7.911,7.911,0,0,1-.21-1.82V800.288h21.583v9.573a2.446,2.446,0,0,0-1.364.27c-0.26-.3-0.51-0.6-0.748-0.909-1.019-1.306-2.284-2.934-4.558-2.068a2.087,2.087,0,0,0-1.233,1.227c-0.468,1.208-.06,3.111,1.222,5.784a2.267,2.267,0,0,0-.04,2.4,17.315,17.315,0,0,0,3.8,4.442c0.157,0.121.32,0.232,0.483,0.343a8.025,8.025,0,0,1-5.658,2.322h-5.4A8.047,8.047,0,0,1,650,817.393v0Zm-9.2-6.791c0-3.548.528-7.619,4.649-7.619a8.086,8.086,0,0,1,2.545.4v1.933a6,6,0,0,0-2.545-.531c-2.633,0-2.851,2.753-2.851,5.819,0,3.114,1.066,4.973,2.851,4.973a7.886,7.886,0,0,0,2.545-.45v0.45a9.573,9.573,0,0,0,.113,1.4,9.645,9.645,0,0,1-2.658.394c-2.911,0-4.649-2.531-4.649-6.771v0Zm7.194,2.608a6.422,6.422,0,0,1-2.545.564c-0.684,0-1.052-1.636-1.052-3.174,0-4.02.608-4.02,1.052-4.02a3.832,3.832,0,0,1,2.545.832v5.8Zm17.155-4.177a0.3,0.3,0,0,1,.2-0.2c0.953-.36,1.389.07,2.5,1.493,0.19,0.244.395,0.5,0.614,0.767-0.98.657-1.787,1.267-2.4,1.758-0.935-2.085-1.1-3.33-.913-3.818h0Zm26.011,18.231c0,0.974-1.259,1.8-2.743,1.8H647.138c-1.483,0-2.742-.824-2.742-1.8V825.55a0.569,0.569,0,0,1,.314-0.082h46.134a0.572,0.572,0,0,1,.315.082v1.717Z" transform="translate(-634.485 -777.938)"/>
    <path id="Shape-2" data-name="Shape" class="cls-1" d="M658.784,794.892a0.9,0.9,0,0,0,1.8,0,2.324,2.324,0,0,1,.7-1.686,4.15,4.15,0,0,0,0-5.621,2.322,2.322,0,0,1-.7-1.686,0.9,0.9,0,0,0-1.8,0,4.072,4.072,0,0,0,1.1,2.811,2.376,2.376,0,0,1,0,3.372A4.069,4.069,0,0,0,658.784,794.892Z" transform="translate(-634.485 -777.938)"/>
    <path id="Shape-3" data-name="Shape" class="cls-1" d="M653.388,794.892a0.9,0.9,0,0,0,1.8,0,2.324,2.324,0,0,1,.7-1.686,4.15,4.15,0,0,0,0-5.621,2.322,2.322,0,0,1-.7-1.686,0.9,0.9,0,0,0-1.8,0,4.076,4.076,0,0,0,1.1,2.811,2.376,2.376,0,0,1,0,3.372A4.074,4.074,0,0,0,653.388,794.892Z" transform="translate(-634.485 -777.938)"/>
    <path id="Shape-4" data-name="Shape" class="cls-1" d="M664.18,794.892a0.9,0.9,0,0,0,1.8,0,2.32,2.32,0,0,1,.7-1.686,4.15,4.15,0,0,0,0-5.621,2.318,2.318,0,0,1-.7-1.686,0.9,0.9,0,0,0-1.8,0,4.071,4.071,0,0,0,1.1,2.811,2.373,2.373,0,0,1,0,3.372A4.068,4.068,0,0,0,664.18,794.892Z" transform="translate(-634.485 -777.938)"/>
  </g>
</svg>
