<svg id="pancake" xmlns="http://www.w3.org/2000/svg" width="71" height="65" viewBox="0 0 71 65">
  <metadata><?xpacket begin="﻿" id="W5M0MpCehiHzreSzNTczkc9d"?>
<x:xmpmeta xmlns:x="adobe:ns:meta/" x:xmptk="Adobe XMP Core 5.6-c142 79.160924, 2017/07/13-01:06:39        ">
   <rdf:RDF xmlns:rdf="http://www.w3.org/1999/02/22-rdf-syntax-ns#">
      <rdf:Description rdf:about=""/>
   </rdf:RDF>
</x:xmpmeta>
                                                                                                    
                                                                                                    
                                                                                                    
                                                                                                    
                                                                                                    
                                                                                                    
                                                                                                    
                                                                                                    
                                                                                                    
                                                                                                    
                                                                                                    
                                                                                                    
                                                                                                    
                                                                                                    
                                                                                                    
                                                                                                    
                                                                                                    
                                                                                                    
                                                                                                    
                                                                                                    
                           
<?xpacket end="w"?></metadata>
<defs>
    <style>
      .cls-1 {
        fill: #2a2d32;
        fill-rule: evenodd;
      }
    </style>
  </defs>
  <path id="Path_17" data-name="Path 17" class="cls-1" d="M1274.15,793.945h-40.14a4.779,4.779,0,1,0,0,9.558h5.73v-1.911h-5.73a2.868,2.868,0,1,1,0-5.735h40.14a2.868,2.868,0,1,1,0,5.735h-8.6V803.5h8.6A4.779,4.779,0,1,0,1274.15,793.945Z" transform="translate(-1218.58 -774.829)"/>
  <path id="Path_18" data-name="Path 18" class="cls-1" d="M1265.55,801.592v10.514a0.955,0.955,0,1,1-1.91,0v-7.647a2.87,2.87,0,0,0-5.74,0,0.955,0.955,0,1,1-1.91,0V799.68h-1.91v4.779a2.865,2.865,0,1,0,5.73,0,0.96,0.96,0,0,1,1.92,0v7.647a2.865,2.865,0,1,0,5.73,0V801.592h-1.91Z" transform="translate(-1218.58 -774.829)"/>
  <path id="Path_19" data-name="Path 19" class="cls-1" d="M1234.01,809.239a2.868,2.868,0,1,1,0-5.736h21.02v-1.911h-21.02a4.779,4.779,0,1,0,0,9.558h28.67v-1.911h-28.67Z" transform="translate(-1218.58 -774.829)"/>
  <path id="Path_20" data-name="Path 20" class="cls-1" d="M1274.15,801.592h-8.6V803.5h8.6a2.868,2.868,0,1,1,0,5.736h-7.64v1.911h7.64A4.779,4.779,0,1,0,1274.15,801.592Z" transform="translate(-1218.58 -774.829)"/>
  <path id="Path_21" data-name="Path 21" class="cls-1" d="M1274.15,809.239h-7.64v1.911h7.64a2.868,2.868,0,1,1,0,5.736h-40.14a2.868,2.868,0,1,1,0-5.736h28.67v-1.911h-28.67a4.779,4.779,0,1,0,0,9.558h40.14A4.779,4.779,0,1,0,1274.15,809.239Z" transform="translate(-1218.58 -774.829)"/>
  <path id="Path_22" data-name="Path 22" class="cls-1" d="M1274.15,816.886h-40.14a4.779,4.779,0,1,0,0,9.558h40.14A4.779,4.779,0,1,0,1274.15,816.886Zm0,7.647h-40.14a2.868,2.868,0,1,1,0-5.736h40.14A2.868,2.868,0,1,1,1274.15,824.533Z" transform="translate(-1218.58 -774.829)"/>
  <path id="Path_23" data-name="Path 23" class="cls-1" d="M1254.08,786.3a4.78,4.78,0,1,0,4.78,4.779A4.782,4.782,0,0,0,1254.08,786.3Zm0,7.647a2.868,2.868,0,1,1,2.87-2.868A2.874,2.874,0,0,1,1254.08,793.945Z" transform="translate(-1218.58 -774.829)"/>
  <path id="Path_24" data-name="Path 24" class="cls-1" d="M1253.12,787.254h1.92a2.866,2.866,0,0,1,2.86-2.868v-1.912A4.789,4.789,0,0,0,1253.12,787.254Z" transform="translate(-1218.58 -774.829)"/>
  <path id="Path_25" data-name="Path 25" class="cls-1" d="M1282.53,824.871a0.954,0.954,0,0,0-.73-0.338h-55.44a0.95,0.95,0,0,0-.94,1.112,7.793,7.793,0,0,0,7.71,6.535h41.9a7.793,7.793,0,0,0,7.71-6.534A0.947,0.947,0,0,0,1282.53,824.871Zm-7.5,5.4h-41.9a5.888,5.888,0,0,1-5.53-3.824h52.96A5.888,5.888,0,0,1,1275.03,830.268Z" transform="translate(-1218.58 -774.829)"/>
</svg>
