<svg id="pearl" xmlns="http://www.w3.org/2000/svg" width="69" height="60" viewBox="0 0 69 60">
  <metadata><?xpacket begin="﻿" id="W5M0MpCehiHzreSzNTczkc9d"?>
<x:xmpmeta xmlns:x="adobe:ns:meta/" x:xmptk="Adobe XMP Core 5.6-c142 79.160924, 2017/07/13-01:06:39        ">
   <rdf:RDF xmlns:rdf="http://www.w3.org/1999/02/22-rdf-syntax-ns#">
      <rdf:Description rdf:about=""/>
   </rdf:RDF>
</x:xmpmeta>
                                                                                                    
                                                                                                    
                                                                                                    
                                                                                                    
                                                                                                    
                                                                                                    
                                                                                                    
                                                                                                    
                                                                                                    
                                                                                                    
                                                                                                    
                                                                                                    
                                                                                                    
                                                                                                    
                                                                                                    
                                                                                                    
                                                                                                    
                                                                                                    
                                                                                                    
                                                                                                    
                           
<?xpacket end="w"?></metadata>
<defs>
    <style>
      .cls-1 {
        fill: #2a2d32;
        fill-rule: evenodd;
      }
    </style>
  </defs>
  <path id="Path_39" data-name="Path 39" class="cls-1" d="M1446.87,819.254a1.011,1.011,0,0,0,1.01-1.015,1.9,1.9,0,0,1,1.89-1.894,1.014,1.014,0,1,0,0-2.028,3.926,3.926,0,0,0-3.92,3.922A1.013,1.013,0,0,0,1446.87,819.254Z" transform="translate(-1415.28 -780.813)"/>
  <path id="Path_40" data-name="Path 40" class="cls-1" d="M1472.52,808.071a1.021,1.021,0,0,0,1.44,0,4.833,4.833,0,0,0,.65-6.444,3.846,3.846,0,0,0-3.1-1.474,33.219,33.219,0,0,1-9.39-8.737,4.74,4.74,0,0,0-4.97.787,8.571,8.571,0,0,0-14.75,0,41.472,41.472,0,0,1-12.56,3.562,4.743,4.743,0,0,0-1.8,4.388,3.818,3.818,0,0,0-3.09,1.471,4.824,4.824,0,0,0,.64,6.447l7.67,7.662q-1.02.236-1.92,0.5c-3.57,1.06-5.31,2.382-5.31,4.04,0,3.269,2.01,6.412,5.66,8.851a30.849,30.849,0,0,0,13.46,4.478,0.888,0.888,0,0,0,.11.006,1.014,1.014,0,0,0,.11-2.022,28.814,28.814,0,0,1-12.55-4.147,11.861,11.861,0,0,1-3.9-4,23.5,23.5,0,0,0,4.56,1.43,88.276,88.276,0,0,0,32.59,0,23.806,23.806,0,0,0,4.56-1.429,11.861,11.861,0,0,1-3.9,4,28.77,28.77,0,0,1-12.54,4.147,1.014,1.014,0,0,0,.11,2.022c0.03,0,.07,0,0.11-0.006a30.817,30.817,0,0,0,13.45-4.477c3.65-2.439,5.66-5.581,5.66-8.849,0-1.66-1.74-2.982-5.31-4.042q-0.9-.265-1.92-0.5l1.28-1.273a1.016,1.016,0,0,0-1.44-1.434l-2.23,2.226c-2.07-.362-4.4-0.642-6.93-0.828a8.148,8.148,0,0,0-14.4,0c-2.52.186-4.85,0.466-6.92,0.828l-8.62-8.614a2.832,2.832,0,0,1-.49-3.76,1.916,1.916,0,0,1,2.65-.332l1.66,1.756a1.016,1.016,0,0,0,.74.317,1.015,1.015,0,0,0,.74-1.712l-1.73-1.818a2.742,2.742,0,0,1,4.28-3.419l1.95,2.566a1.016,1.016,0,1,0,1.62-1.226l-1.86-2.456a2.747,2.747,0,0,1,4.92-2.267,8.592,8.592,0,0,0-.31,2.282,1.015,1.015,0,0,0,2.03,0,6.545,6.545,0,0,1,13.09,0,1.015,1.015,0,0,0,2.03,0,8.2,8.2,0,0,0-.32-2.282,2.6,2.6,0,0,1,3.32-.991,2.573,2.573,0,0,1,1.61,3.258l-1.86,2.456a1.018,1.018,0,0,0,.19,1.421,1.034,1.034,0,0,0,.62.207,0.993,0.993,0,0,0,.8-0.4l1.95-2.566a2.746,2.746,0,0,1,4.29,3.419l-1.73,1.818a1.016,1.016,0,0,0,.04,1.434,1.021,1.021,0,0,0,1.44-.039l1.66-1.756a1.914,1.914,0,0,1,2.65.334,2.828,2.828,0,0,1-.49,3.757,1.017,1.017,0,0,0,0,1.435h0Zm-14.78,8.448a52.083,52.083,0,0,1,9.89,1.659c3.15,0.934,3.86,1.85,3.86,2.1,0,0.337-1.08,1.54-5.87,2.614a65.173,65.173,0,0,1-10.3,1.314A8.073,8.073,0,0,0,1457.74,816.519Zm-7.97-4.4a6.12,6.12,0,1,1-6.12,6.121A6.133,6.133,0,0,1,1449.77,812.118Zm-7.96,4.4a8.073,8.073,0,0,0,2.42,7.685,65.173,65.173,0,0,1-10.3-1.314c-4.79-1.074-5.87-2.277-5.87-2.615,0-.247.71-1.162,3.86-2.1A51.994,51.994,0,0,1,1441.81,816.519Z" transform="translate(-1415.28 -780.813)"/>
  <path id="Path_41" data-name="Path 41" class="cls-1" d="M1469.22,809.713v0a1.008,1.008,0,0,0,.71,1.72A1.01,1.01,0,1,0,1469.22,809.713Z" transform="translate(-1415.28 -780.813)"/>
  <path id="Path_42" data-name="Path 42" class="cls-1" d="M1449.78,831.593h-0.01A1.015,1.015,0,1,0,1449.78,831.593Z" transform="translate(-1415.28 -780.813)"/>
</svg>
