<svg xmlns="http://www.w3.org/2000/svg" xmlns:xlink="http://www.w3.org/1999/xlink" id="Capa_1" x="0px" y="0px" viewBox="0 0 480 480" style="enable-background:new 0 0 480 480;" xml:space="preserve">
<path id="XMLID_9_" d="M470,375h-51.991l15.988-46.33h26.861c3.975,0,7.572-2.354,9.164-5.996  c6.621-15.153,9.979-31.272,9.979-47.91c0-26.566-8.695-51.14-23.388-71.025c-0.342-0.566-0.746-1.105-1.21-1.609  C433.498,173.499,398.986,155,360.236,155c-13.132,0-25.774,2.124-37.607,6.047C296.375,150.399,268.582,145,240,145H100  c-11.028,0-20-8.972-20-20s8.972-20,20-20h30c22.056,0,40-17.944,40-40s-17.944-40-40-40H10C4.477,25,0,29.477,0,35s4.477,10,10,10  h120c11.028,0,20,8.972,20,20s-8.972,20-20,20h-30c-22.056,0-40,17.944-40,40s17.944,40,40,40h48.067  c-23.374,10.759-44.894,25.699-63.631,44.437C42.884,250.989,20,306.236,20,365v10H10c-5.523,0-10,4.477-10,10  c0,38.598,31.402,70,70,70h340c38.598,0,70-31.402,70-70C480,379.477,475.523,375,470,375z M350.236,175.497v33.173  c0,5.523,4.477,10,10,10s10-4.477,10-10v-33.173c25.456,2.545,48.121,14.696,64.309,32.769l-25.521,25.521  c-3.906,3.905-3.906,10.237,0,14.142c3.906,3.907,10.238,3.905,14.142,0l23.3-23.299C455.067,239.369,460,256.502,460,274.764  c0,11.689-1.986,23.065-5.912,33.906h-27.219c-4.266,0-8.062,2.706-9.453,6.738L396.851,375h-73.829l-27.025-60.414  c-1.61-3.599-5.186-5.917-9.128-5.917h-20.485c-3.926-10.841-5.913-22.218-5.913-33.906c0-18.124,4.86-35.139,13.342-49.802  l19.38,20.566c3.787,4.019,10.117,4.209,14.136,0.42c4.02-3.788,4.208-10.116,0.42-14.136l-22-23.348  C301.949,190.284,324.688,178.051,350.236,175.497z M240.9,285.005C240.6,285.001,240.3,285,240,285c-44.112,0-80,35.888-80,80v10  h-50.389v-10c0-71.897,58.492-130.389,130.389-130.389c2.439,0,4.883,0.068,7.322,0.203c-4.436,12.5-6.851,25.948-6.851,39.95  C240.471,278.201,240.614,281.616,240.9,285.005z M180,365c0-33.084,26.916-60,60-60c1.454,0,2.911,0.052,4.36,0.156  c1.563,5.96,3.595,11.807,6.09,17.518c1.592,3.642,5.189,5.996,9.164,5.996h20.774L301.112,375H180V365z M40,365  c0-110.28,89.72-200,200-200c19.453,0,38.497,2.747,56.849,8.186c-12.25,7.672-23.024,17.5-31.78,28.945  c-0.463,0.502-0.867,1.041-1.208,1.607c-2.771,3.75-5.332,7.672-7.658,11.738c-5.367-0.575-10.796-0.865-16.202-0.865  c-82.687,0-150.001,67.08-150.387,149.677c-0.001,0.062-0.001,0.123-0.001,0.184V375H40V365z M410,435H70  c-24.146,0-44.349-17.206-48.996-40h437.991C454.349,417.794,434.146,435,410,435z"></path>
<g>
</g>
<g>
</g>
<g>
</g>
<g>
</g>
<g>
</g>
<g>
</g>
<g>
</g>
<g>
</g>
<g>
</g>
<g>
</g>
<g>
</g>
<g>
</g>
<g>
</g>
<g>
</g>
<g>
</g>
</svg>