<svg xmlns="http://www.w3.org/2000/svg" id="tray" width="72" height="69" viewBox="0 0 72 69"><metadata></metadata><defs><style>
      .cls-1 {
        fill: #2a2d32;
        fill-rule: evenodd;
      }
    </style></defs><path id="Path_32" data-name="Path 32" class="cls-1" d="M1081.6,815.939a1.811,1.811,0,0,0-.16-0.242,3.464,3.464,0,0,0-4.84-.8L1066.65,822h-10.4a0.89,0.89,0,1,1,0-1.78h5.79a3.113,3.113,0,0,0,3.11-3.116v-0.1a3.12,3.12,0,0,0-3.18-3.015h-11.58a4.486,4.486,0,0,0-2.82,1.033l-4.35,3.623a0.9,0.9,0,0,0-.32.685v10.682a0.891,0.891,0,0,0,.89.89h22.09a6.232,6.232,0,0,0,3.96-1.433l10.79-8.916A3.487,3.487,0,0,0,1081.6,815.939Zm-2.05,3.207-10.84,8.956a4.473,4.473,0,0,1-2.83,1.023h-21.2v-9.374l4.03-3.358a2.712,2.712,0,0,1,1.69-.62H1062a1.355,1.355,0,0,1,1.37,1.336,1.331,1.331,0,0,1-1.33,1.336h-5.79a2.67,2.67,0,0,0,0,5.34h10.69a0.876,0.876,0,0,0,.51-0.165l10.19-7.274a1.685,1.685,0,0,1,2.36.4c0.03,0.036.05,0.074,0.08,0.112A1.726,1.726,0,0,1,1079.55,819.146Z" transform="translate(-1024.705 -773.266)"></path><path id="Path_33" data-name="Path 33" class="cls-1" d="M1043.76,817.553H1034v1.781h8.87v13.352H1034v1.78h9.76a0.893,0.893,0,0,0,.9-0.89V818.444A0.893,0.893,0,0,0,1043.76,817.553Z" transform="translate(-1024.705 -773.266)"></path><path id="Path_34" data-name="Path 34" class="cls-1" d="M1038.45,825.565a2.67,2.67,0,1,0,2.67,2.67A2.675,2.675,0,0,0,1038.45,825.565Zm0,3.56a0.89,0.89,0,1,1,.89-0.89A0.891,0.891,0,0,1,1038.45,829.125Z" transform="translate(-1024.705 -773.266)"></path><path id="Path_35" data-name="Path 35" class="cls-1" d="M1086.52,808.652h-51.63a0.891,0.891,0,0,0-.89.89,6.241,6.241,0,0,0,6.23,6.231h40.95a6.241,6.241,0,0,0,6.23-6.231A0.891,0.891,0,0,0,1086.52,808.652Zm-5.34,5.341h-40.95a4.454,4.454,0,0,1-4.36-3.561h49.67A4.454,4.454,0,0,1,1081.18,813.993Z" transform="translate(-1024.705 -773.266)"></path><path id="Path_36" data-name="Path 36" class="cls-1" d="M1060.7,785.508a23.168,23.168,0,0,0-23.14,23.144v0.89a0.891,0.891,0,0,0,.89.89h44.51a0.891,0.891,0,0,0,.89-0.89v-0.89A23.17,23.17,0,0,0,1060.7,785.508Zm-21.36,23.144a21.365,21.365,0,0,1,42.73,0h-42.73Z" transform="translate(-1024.705 -773.266)"></path><path id="Path_37" data-name="Path 37" class="cls-1" d="M1046.06,795.662a19.516,19.516,0,0,0-1.71,2.226l1.48,0.984a18.958,18.958,0,0,1,1.56-2.028Z" transform="translate(-1024.705 -773.266)"></path><path id="Path_38" data-name="Path 38" class="cls-1" d="M1060.7,789.069a19.534,19.534,0,0,0-13.4,5.316l1.22,1.3a17.743,17.743,0,0,1,12.19-4.833Z" transform="translate(-1024.705 -773.266)"></path><path class="cls-1" d="M1058.03,781.057h5.34v1.781h-5.34v-1.781Z" transform="translate(-1024.705 -773.266)"></path><path class="cls-1" d="M1059.81,781.948h1.78v4.45h-1.78v-4.45Z" transform="translate(-1024.705 -773.266)"></path></svg>